<?xml version="1.0" encoding="UTF-8"?>
<svg id="Capa_1" data-name="Capa 1" xmlns="http://www.w3.org/2000/svg" viewBox="0 0 1398 1026">
  <polygon points="229.5 642.5 343 642.5 286.25 552.22 229.5 642.5" style="fill: #c73298;"/>
  <polygon points="343.5 642.5 484 642.5 560.44 520.49 434.1 316.26 286.25 552.22 343.5 642.5" style="fill: #57217c;"/>
  <polygon points="434.5 316.5 581.5 82.5 709.5 285.5 560.44 520.49 434.5 316.5" style="fill: #eb3587;"/>
  <polygon points="531.44 642.5 644.94 642.5 588.19 552.22 531.44 642.5" style="fill: #0599db;"/>
  <polygon points="645.44 642.5 785.94 642.5 862.38 520.49 736.05 316.26 588.19 552.22 645.44 642.5" style="fill: #94cc00;"/>
  <polygon points="736.44 316.5 883.44 82.5 1011.44 285.5 862.38 520.49 736.44 316.5" style="fill: #fcc101;"/>
  <polygon points="832.44 642.5 945.94 642.5 889.19 552.22 832.44 642.5" style="fill: #ed4a66;"/>
  <polygon points="946.44 642.5 1086.94 642.5 1163.38 520.49 1037.05 316.26 889.19 552.22 946.44 642.5" style="fill: #ff870c;"/>
  <polygon points="1037.44 316.5 1184.44 82.5 1312.44 285.5 1163.38 520.49 1037.44 316.5" style="fill: #e40033;"/>
  <polygon points="84 827 118.68 827 118.68 759.04 150 804 181.04 759.04 181.04 827 216.39 827 216 705 174.93 705 150.2 747.79 126.39 705 84 705 84 827" style="fill: #3c393a;"/>
  <polygon points="230.54 827 328.57 827 328.57 800.5 265.57 800.5 265.5 779.5 328.57 779.5 328.57 751.96 265.57 751.96 265.5 731.5 328.57 731.5 328.57 705 230.54 705 230.54 827" style="fill: #3f3838;"/>
  <polygon points="335.64 827 373.57 827 394.5 793.5 416 827 454.25 827 415.5 762.5 454.25 705 419.21 705 394.95 735.25 377.11 705 335.64 705 373.5 763.5 335.64 827" style="fill: #3d3938;"/>
  <rect x="465.18" y="705" width="34.71" height="122" style="fill: #3f383a;"/>
  <polygon points="783.84 826.82 881.88 826.82 881.88 800.32 818.88 800.32 818.8 779.32 881.88 779.32 881.88 751.79 818.88 751.79 818.8 731.32 881.88 731.32 881.88 704.82 783.84 704.82 783.84 826.82" style="fill: #3d3938;"/>
  <polygon points="1132.34 826.46 1230.38 826.46 1230.38 799.96 1167.38 799.96 1167.3 778.96 1230.38 778.96 1230.38 751.43 1167.38 751.43 1167.3 730.96 1230.38 730.96 1230.38 704.46 1132.34 704.46 1132.34 826.46" style="fill: #3d3936;"/>
  <polygon points="894.61 826.82 929.64 826.82 929.64 765.82 978.5 826.82 1013.86 826.82 1013.86 704.82 978.5 704.82 979.14 765.82 928.68 704.82 894.61 704.82 894.61 826.82" style="fill: #3d3938;"/>
  <path d="M712.08,801l-13.93-.43c-1.49-1.24-3.84-3.53-5.65-7.07-1.62-3.17-2.16-6.08-2.35-7.93,.1-26.89,.19-53.79,.29-80.68h-34.29v81.68c1.83,5.71,5.79,15.45,14.35,24.93,7.4,8.18,15.25,12.86,20.36,15.39h21.21l.49-.07h21.21c4.23-1.22,18.55-5.93,27.71-20.32,4.96-7.8,6.48-15.4,7-20v-81.68h-34.29l.29,80.68c-.05,1.69-.35,4.7-2,8-1.89,3.79-4.59,5.99-6,7-4.81,.17-9.61,.33-14.42,.5Z" style="fill: #3c3a36;"/>
  <path d="M1104.41,744.26l19.27-27.79c-36.38-28.04-80.55-18.93-94.2,4.28-6.61,11.24-9.18,30.88-.04,43.61,7.15,9.97,20.13,14.08,23.59,15.17,13.98,4.42,25.96,1.77,31.04,9.62,.54,.84,1.7,2.68,1.07,4.28-1.61,4.1-13.61,3.21-19.27,2.14-5.77-1.09-16.32-4.22-27.45-14.96-6.91,9.26-13.81,18.53-20.72,27.79,5.54,5.46,24.35,22.6,52.45,23.51,8.67,.28,36.4,1.19,50.31-19.24,8.12-11.92,10.42-29.47,3.21-42.75-5.74-10.58-15.92-15.51-21.41-18.17-18.81-9.11-36.37-5.24-38.54-12.83-.52-1.83-.06-4,1.07-5.34,2.91-3.46,10.33-1.54,16.06,0,5.74,1.55,14.1,4.52,23.55,10.69Z" style="fill: #3d3936;"/>
  <path d="M577.67,704.82c33.06-1.12,62.99,25.35,64.29,59.69,1.33,35.07-27.75,64.26-61.69,64.49-35.11,.23-64.72-30.61-62.77-67.54,3.84-31.64,29.86-55.62,60.17-56.64Z" style="fill: none; stroke: #3d3938; stroke-miterlimit: 10;"/>
  <path d="M577.08,733.02c17.6-.6,33.53,13.72,34.23,32.29,.71,18.97-14.77,34.77-32.84,34.89-18.69,.13-34.45-16.56-33.42-36.54,2.04-17.12,15.9-30.09,32.03-30.64Z" style="fill: none; stroke: #3d3938; stroke-miterlimit: 10;"/>
  <rect x="598" y="758" width="27.11" height="81.8" transform="translate(-389.63 699.5) rotate(-46.9)" style="fill: #3c3a38;"/>
  <path d="M531,748.2c.71,4.43,.89,8.93,.62,13.41-.05,.81,.72,1.5,1.5,1.5,.85,0,1.45-.69,1.5-1.5,.29-4.75,.02-9.5-.73-14.21-.13-.8-1.13-1.25-1.85-1.05-.85,.23-1.18,1.04-1.05,1.85h0Z" style="fill: #3d3938;"/>
  <path d="M533.54,751.42c-1.34,6.43-1.35,13.02-.05,19.46,.38,1.89,3.28,1.09,2.89-.8-1.19-5.89-1.18-11.98,.05-17.86,.39-1.88-2.5-2.69-2.89-.8h0Z" style="fill: #3d3938;"/>
  <path d="M524.2,741.97c-1.41,6.81-.57,13.53,1.02,20.23,1.39,5.84,2.95,11.64,4.44,17.45,.97,3.8,5.42,6.47,9.23,5.24s6.28-5.15,5.24-9.23-2.05-8.02-3.08-12.04-2.04-7.78-2.59-11.77l.27,1.99c-.34-2.67-.44-5.34-.12-8.02l-.27,1.99c.09-.63,.2-1.25,.33-1.87,.79-3.83-1.12-8.29-5.24-9.23-3.75-.85-8.37,1.13-9.23,5.24h0Z" style="fill: #3d3938;"/>
  <path d="M521.71,753.21l.09,.16-.76-1.79,.03,.17-.27-1.99-.02,.18,.27-1.99-.06,.18,.76-1.79c-.22,.44-.55,.8-.79,1.22-.53,.92-.93,1.94-1.26,2.95s-.5,2.09-.67,3.13c-.47,2.92-.81,5.86-1.19,8.79l11.29-6.48-.13-.09,2.69,2.69-.1-.13,.76,1.79-.05-.16,.27,1.99v-.16c-.09,.66-.18,1.33-.27,1.99l.05-.16c.58-1.81,.19-4.16-.76-5.78s-2.69-3.04-4.48-3.45c-1.92-.44-4.07-.34-5.78,.76s-2.83,2.56-3.45,4.48c-.43,1.36-.41,3.09,0,4.46,.18,.61,.54,1.37,.85,1.92,.69,1.23,1.71,2,2.82,2.78,2.14,1.51,5.4,1.27,7.57,0,1.13-.67,2.02-1.56,2.69-2.69,.68-1.17,1.02-2.43,1.02-3.79,.19-1.44,.37-2.88,.57-4.32l-.27,1.99c.28-2.05,.46-4.27,1.25-6.2l-.76,1.79c.26-.59,.66-1.05,.98-1.6,.75-1.28,1.09-2.68,1.17-4.15s-.41-2.97-1.12-4.3c-.87-1.62-2.73-2.97-4.48-3.45s-4.19-.27-5.78,.76-3.01,2.57-3.45,4.48c-.46,2.01-.23,3.94,.76,5.78h0Z" style="fill: #3d3938;"/>
  <path d="M517.65,764.8c-.69,6.96,1.23,13.86,3.25,20.45,.56,1.84,1.77,3.5,3.45,4.48s3.98,1.34,5.78,.76c3.78-1.22,6.47-5.21,5.24-9.23-1.17-3.81-2.32-7.63-2.86-11.58l.27,1.99c-.29-2.29-.36-4.58-.13-6.88,.18-1.8-.97-4.07-2.2-5.3-1.3-1.3-3.44-2.28-5.3-2.2s-3.95,.72-5.3,2.2c-1.42,1.55-1.99,3.22-2.2,5.3h0Z" style="fill: #3d3938;"/>
  <path d="M523.59,779.89c-.41,.34-1.01,1.15-1.28,1.61-.3,.49-.7,1.42-.85,1.97-.13,.47-.29,1.64-.3,2.13,0,.43,.07,.72,.13,1.23,.13,.98,.32,1.68,.67,2.58,.67,1.72,1.39,3.43,2.2,5.09,1.11,2.29,2.41,4.48,3.87,6.57,.47,.87,1.12,1.58,1.93,2.1,.72,.66,1.57,1.11,2.55,1.34,1.8,.49,4.19,.27,5.78-.76s3.01-2.57,3.45-4.48,.39-4.14-.76-5.78c-1.92-2.74-3.55-5.67-4.86-8.75l.76,1.79c-.36-.85-.84-1.78-.99-2.69l.27,1.99c-.01-.1,0-.2,0-.3l-.27,1.99,.04-.13-.76,1.79,.07-.11-1.17,1.52,.11-.09c.73-.68,1.25-1.48,1.55-2.41,.47-.89,.68-1.86,.65-2.89,0-1.84-.82-4.04-2.2-5.3s-3.31-2.29-5.3-2.2l-1.99,.27c-1.27,.36-2.37,1-3.31,1.93h0Z" style="fill: #3d3938;"/>
  <path d="M529.47,796.78c-.17,.78-.33,1.66-.31,2.46l.27,1.99c0,.08,.02,.16,.05,.23,.1,.37,.33,.82,.46,1.12,.42,1,.54,1.21,1.21,2.07,.33,.43,.62,.86,1.02,1.22,.73,.67,1.46,1.27,2.07,2.06l-1.17-1.52c.59,.79,1.1,1.66,1.79,2.37s1.54,1.19,2.32,1.78l-1.52-1.17c.71,.6,1.17,1.41,1.89,2,1.13,.91,2.33,1.66,3.48,2.53l-1.52-1.17c.28,.22,.55,.46,.78,.74l-1.17-1.52c.17,.22,.3,.44,.41,.69l2.69-10.26-.11,.05,1.79-.76-.12,.03,1.99-.27h-.12c.66,.09,1.33,.18,1.99,.27-.08,0-.16-.03-.23-.07l1.79,.76-.1-.07,1.52,1.17-.08-.09c-1.33-1.37-3.41-2.2-5.3-2.2-1.03-.04-2,.18-2.89,.65-.93,.3-1.73,.82-2.41,1.55-1.31,1.43-2.29,3.31-2.2,5.3s.78,3.84,2.2,5.3c.43,.45,1.18,1,1.7,1.33,.82,.52,1.3,.63,2.03,.82l1.99,.27c.71,0,1.42-.1,2.12-.27,.7-.19,1.36-.52,2.02-.83,.87-.47,1.58-1.12,2.1-1.93,.66-.72,1.11-1.57,1.34-2.55l.27-1.99c0-1.35-.35-2.62-1.02-3.79-.07-.16-.16-.32-.26-.47-.42-.63-.91-1.27-1.42-1.83-.63-.71-1.56-1.33-2.27-1.85-.62-.46-1.29-.84-1.91-1.31l1.52,1.17c-.46-.37-.82-.8-1.18-1.26-.76-.94-1.78-1.62-2.78-2.29l1.52,1.17c-.14-.11-.25-.22-.36-.36l1.17,1.52c-.8-1.12-1.59-2.26-2.56-3.23-.53-.52-1.16-.94-1.63-1.52l1.17,1.52c-.1-.14-.17-.26-.24-.41l.76,1.79c-.06-.16-.1-.29-.13-.46l.27,1.99c-.01-.1-.01-.21,0-.31l-.27,1.99,.03-.15c.43-1.97,.28-4.01-.76-5.78-.47-.87-1.12-1.58-1.93-2.1-.72-.66-1.57-1.11-2.55-1.34-1.92-.44-4.07-.34-5.78,.76-1.59,1.03-3.03,2.57-3.45,4.48h0Z" style="fill: #3d3938;"/>
  <path d="M552.62,819.11c7.72,1.88,15.71,2.95,23.65,3.11,8.03,.16,15.88-1.48,23.76-2.81,1.75-.3,3.62-1.98,4.48-3.45,.94-1.61,1.34-3.98,.76-5.78s-1.71-3.57-3.45-4.48c-1.88-1-3.69-1.11-5.78-.76-4.23,.72-8.45,1.51-12.69,2.1l1.99-.27c-6.73,.88-13.63,.46-20.34-.43l1.99,.27c-3.5-.48-6.96-1.14-10.39-1.97-3.81-.93-8.31,1.21-9.23,5.24s1.16,8.23,5.24,9.23h0Z" style="fill: #3d3938;"/>
  <path d="M541.71,808.76c-.43,1.19-.35,2.94-.02,4.14,.35,1.29,1.05,2.47,1.99,3.42,.5,.51,1.07,.99,1.7,1.32,.12,.06,.23,.11,.34,.18l-1.52-1.17c.05,.04,.09,.09,.13,.14l-1.17-1.52,.04,.08-.76-1.79v.08c.01-1.33,.01-2.66,.01-3.99l-.02,.07,1.93-3.31-.05,.06,3.31-1.93-.1,.04h3.99l-.11-.02,1.79,.76c-.08-.03-.15-.07-.21-.12l1.52,1.17c-.3-.24-.6-.47-.9-.71l-9.09,11.78c2.54,1.63,5.09,3.25,7.63,4.88,.86,.55,1.79,.84,2.79,.89,1,.22,1.99,.18,2.99-.13,.98-.23,1.83-.68,2.55-1.34,.82-.53,1.46-1.23,1.93-2.1l.76-1.79c.36-1.33,.36-2.66,0-3.99l-.76-1.79c-.67-1.13-1.56-2.02-2.69-2.69-2.54-1.63-5.09-3.25-7.63-4.88-.86-.55-1.79-.84-2.79-.89-1-.22-1.99-.18-2.99,.13l-1.79,.76c-.87,.47-1.58,1.12-2.1,1.93-.46,.47-.79,1.02-.96,1.65-.47,.89-.68,1.86-.65,2.89l.27,1.99c.36,1.27,1,2.37,1.93,3.31,.17,.13,.34,.27,.51,.4,.63,.5,1.24,1.06,1.91,1.48,.07,.04,.14,.08,.21,.12l1.79,.76c.37,.06,.74,.11,1.11,.15,.66,.18,1.33,.18,1.99,0,.37,.02,.72-.03,1.05-.15,.32-.12,.64-.25,.95-.4,.93-.3,1.73-.82,2.41-1.55l.05-.06,1.17-1.52c.23-.39,.64-1.44,.77-1.86,.31-1,.36-1.99,.13-2.99-.03-.35-.08-.69-.14-1.03-.09-.35-.61-1.55-.78-1.87-.32-.6-.76-1.17-1.25-1.63l-.07-.07-1.52-1.17c-.14-.08-.29-.15-.42-.24l1.52,1.17s-.09-.08-.13-.13l1.17,1.52-.03-.07,1.02,3.79v-.08c-.09,.66-.18,1.33-.27,1.99l.03-.08c.31-1,.36-1.99,.13-2.99-.05-1-.34-1.93-.89-2.79-.47-.87-1.12-1.58-1.93-2.1-.72-.66-1.57-1.11-2.55-1.34l-1.99-.27c-1.35,0-2.62,.35-3.79,1.02l-1.52,1.17c-.93,.94-1.57,2.04-1.93,3.31h0Z" style="fill: #3d3938;"/>
  <path d="M560.75,825.68c.4-.04,.75-.05,1.15-.02l-1.99-.27c1.68,.25,3.26,.99,4.87,1.48s3.41,.93,5.14,1.25c3.93,.73,7.94,1.15,11.94,1.07s7.68-3.4,7.5-7.5-3.3-7.58-7.5-7.5c-2.49,.05-4.96-.09-7.43-.41l1.99,.27c-2.4-.33-4.77-.81-7.09-1.48-2.79-.8-5.6-2.22-8.59-1.89-2.05,.22-3.79,.69-5.3,2.2-1.3,1.3-2.28,3.44-2.2,5.3s.72,3.95,2.2,5.3c1.37,1.26,3.37,2.41,5.3,2.2h0Z" style="fill: #3d3938;"/>
  <path d="M615.58,808.74c-.47-1.05-1.14-1.54-1.96-2.18-.91-.71-1.31-1.07-2.63-1.38h-.09c-.66-.1-1.33-.19-1.99-.28-.4,.02-.8,.1-1.19,.15s-.79,.07-1.17,.18c-.54,.15-1.37,.54-1.88,.79-.14,.07-.27,.14-.39,.23-.73,.52-1.47,1.06-2.08,1.72-.23,.25-.45,.5-.71,.71l1.52-1.17c-.19,.14-.39,.26-.61,.36l1.79-.76c-.76,.31-1.59,.41-2.38,.64-.97,.29-1.91,.72-2.83,1.13-.42,.18-.81,.39-1.19,.65-.87,.47-1.58,1.12-2.1,1.93-.66,.72-1.11,1.57-1.34,2.55-.31,1-.36,1.99-.13,2.99,.05,1,.34,1.93,.89,2.79l1.17,1.52c.94,.93,2.04,1.57,3.31,1.93l1.99,.27c1.35,0,2.62-.35,3.79-1.02,.4-.27,.81-.49,1.25-.67l-1.79,.76c1.05-.43,2.19-.54,3.25-.94,1.71-.65,3-1.28,4.33-2.6,.33-.33,.62-.7,.98-1l-1.52,1.17c.13-.09,.25-.17,.39-.23l-1.79,.76c.09-.03,.17-.06,.26-.07l-1.99,.27c.06-.01,.13-.02,.19-.02l-1.99-.27h.09c-.6-.24-1.19-.49-1.79-.74l.08,.04-2.69-2.69,.03,.07c.47,.87,1.12,1.58,1.93,2.1,.72,.66,1.57,1.11,2.55,1.34,1,.31,1.99,.36,2.99,.13,1-.05,1.93-.34,2.79-.89l1.52-1.17c.93-.94,1.57-2.04,1.93-3.31l.27-1.99c0-1.35-.35-2.62-1.02-3.79h0Z" style="fill: #3d3938;"/>
  <path d="M602.32,823.86c3.92,0,7.68-3.45,7.5-7.5s-3.3-7.5-7.5-7.5c-3.92,0-7.68,3.45-7.5,7.5s3.3,7.5,7.5,7.5h0Z" style="fill: #3d3938;"/>
  <path d="M599.86,825.36c3.92,0,7.68-3.45,7.5-7.5s-3.3-7.5-7.5-7.5c-3.92,0-7.68,3.45-7.5,7.5s3.3,7.5,7.5,7.5h0Z" style="fill: #3d3938;"/>
  <path d="M595.36,827.07c3.92,0,7.68-3.45,7.5-7.5s-3.3-7.5-7.5-7.5c-3.92,0-7.68,3.45-7.5,7.5s3.3,7.5,7.5,7.5h0Z" style="fill: #3d3938;"/>
  <path d="M595.36,827.07c3.92,0,7.68-3.45,7.5-7.5s-3.3-7.5-7.5-7.5c-3.92,0-7.68,3.45-7.5,7.5s3.3,7.5,7.5,7.5h0Z" style="fill: #3d3938;"/>
  <path d="M589.89,828.14c3.92,0,7.68-3.45,7.5-7.5s-3.3-7.5-7.5-7.5c-3.92,0-7.68,3.45-7.5,7.5s3.3,7.5,7.5,7.5h0Z" style="fill: #3d3938;"/>
  <path d="M584.43,828.68c3.92,0,7.68-3.45,7.5-7.5s-3.3-7.5-7.5-7.5c-3.92,0-7.68,3.45-7.5,7.5s3.3,7.5,7.5,7.5h0Z" style="fill: #3d3938;"/>
  <path d="M547.88,803.74c5.82,5.99,14.14,7.93,21.9,10.08,4.4,1.22,8.75,1.53,13.29,1.5,2.38-.02,4.9,.15,7.23-.45s4.5-2.14,6.58-3.34c3.4-1.96,4.88-6.87,2.69-10.26s-6.62-4.79-10.26-2.69c-1.41,.81-2.8,1.73-4.27,2.41l1.79-.76c-.36,.13-.69,.21-1.07,.27l1.99-.27c-1.86,.15-3.75,.07-5.61,.08s-3.83,.02-5.74-.2l1.99,.27c-2.97-.4-5.86-1.38-8.74-2.18-2.58-.72-5.14-1.46-7.61-2.49l1.79,.76c-1.21-.52-2.39-1.1-3.51-1.8-.22-.14-.44-.28-.65-.43-.18-.12-1.26-.93-.18-.11s.08,.03-.14-.17c-.29-.27-.57-.55-.85-.83-2.74-2.82-7.89-2.95-10.61,0s-2.92,7.6,0,10.61h0Z" style="fill: #3d3938;"/>
  <path d="M587.04,799.79c-.09,.09-.18,.18-.29,.26l1.52-1.17c-.18,.13-.37,.24-.58,.32l1.79-.76c-.84,.34-1.77,.4-2.65,.6-1.05,.24-2.07,.58-3.09,.93-.98,.23-1.83,.68-2.55,1.34-.82,.53-1.46,1.23-1.93,2.1-.55,.86-.84,1.79-.89,2.79-.22,1-.18,1.99,.13,2.99l.76,1.79c.67,1.13,1.56,2.02,2.69,2.69l1.79,.76c1.33,.36,2.66,.36,3.99,0,1.27-.43,2.55-.85,3.87-1.09,.52-.09,1.05-.16,1.55-.32,.41-.13,.82-.33,1.21-.49,.37-.16,.82-.32,1.2-.52s.72-.52,1.04-.77c.34-.26,.74-.52,1.04-.84,.73-.68,1.25-1.48,1.55-2.41,.47-.89,.68-1.86,.65-2.89,.04-1.03-.18-2-.65-2.89-.3-.93-.82-1.73-1.55-2.41l-1.52-1.17c-1.17-.68-2.43-1.02-3.79-1.02l-1.99,.27c-1.27,.36-2.37,1-3.31,1.93h0Z" style="fill: #3d3938;"/>
  <path d="M541.25,791.93c3.92,0,7.68-3.45,7.5-7.5s-3.3-7.5-7.5-7.5c-3.92,0-7.68,3.45-7.5,7.5s3.3,7.5,7.5,7.5h0Z" style="fill: #3d3938;"/>
  <path d="M542.86,793.64c3.92,0,7.68-3.45,7.5-7.5s-3.3-7.5-7.5-7.5c-3.92,0-7.68,3.45-7.5,7.5s3.3,7.5,7.5,7.5h0Z" style="fill: #3d3938;"/>
  <path d="M545,797.18c3.92,0,7.68-3.45,7.5-7.5s-3.3-7.5-7.5-7.5c-3.92,0-7.68,3.45-7.5,7.5s3.3,7.5,7.5,7.5h0Z" style="fill: #3d3938;"/>
  <path d="M545.75,800.93c3.92,0,7.68-3.45,7.5-7.5s-3.3-7.5-7.5-7.5c-3.92,0-7.68,3.45-7.5,7.5s3.3,7.5,7.5,7.5h0Z" style="fill: #3d3938;"/>
  <path d="M547.04,799.96c3.92,0,7.68-3.45,7.5-7.5s-3.3-7.5-7.5-7.5c-3.92,0-7.68,3.45-7.5,7.5s3.3,7.5,7.5,7.5h0Z" style="fill: #3d3938;"/>
  <path d="M548.43,801.57c3.92,0,7.68-3.45,7.5-7.5s-3.3-7.5-7.5-7.5c-3.92,0-7.68,3.45-7.5,7.5s3.3,7.5,7.5,7.5h0Z" style="fill: #3d3938;"/>
  <path d="M536.94,741.59c-1.02,1.42-1.7,3.05-2.31,4.67s-.84,3.43-1.01,5.18c-.04,1.03,.18,2,.65,2.89,.3,.93,.82,1.73,1.55,2.41,.68,.73,1.48,1.25,2.41,1.55,.89,.47,1.86,.68,2.89,.65l1.99-.27c1.27-.36,2.37-1,3.31-1.93l1.17-1.52c.68-1.17,1.02-2.43,1.02-3.79,.02-.17,.04-.35,.06-.52l-.27,1.99c.15-1.07,.44-2.11,.86-3.1l-.76,1.79c.37-.86,.83-1.68,1.38-2.44,.55-.86,.84-1.79,.89-2.79,.22-1,.18-1.99-.13-2.99-.23-.98-.68-1.83-1.34-2.55-.53-.82-1.23-1.46-2.1-1.93l-1.79-.76c-1.33-.36-2.66-.36-3.99,0l-1.79,.76c-1.13,.67-2.02,1.56-2.69,2.69h0Z" style="fill: #3d3938;"/>
  <path d="M532.35,751.59c-.29,1.21-.59,2.43-.88,3.64-.31,1-.36,1.99-.13,2.99,.05,1,.34,1.93,.89,2.79,.47,.87,1.12,1.58,1.93,2.1,.72,.66,1.57,1.11,2.55,1.34l1.99,.27c1.35,0,2.62-.35,3.79-1.02l1.52-1.17c.93-.94,1.57-2.04,1.93-3.31,.29-1.21,.59-2.43,.88-3.64,.31-1,.36-1.99,.13-2.99-.05-1-.34-1.93-.89-2.79-.47-.87-1.12-1.58-1.93-2.1-.72-.66-1.57-1.11-2.55-1.34l-1.99-.27c-1.35,0-2.62,.35-3.79,1.02l-1.52,1.17c-.93,.94-1.57,2.04-1.93,3.31h0Z" style="fill: #3d3938;"/>
  <path d="M537.82,768.68c3.92,0,7.68-3.45,7.5-7.5s-3.3-7.5-7.5-7.5c-3.92,0-7.68,3.45-7.5,7.5s3.3,7.5,7.5,7.5h0Z" style="fill: #3d3938;"/>
  <path d="M537.39,771.89c3.92,0,7.68-3.45,7.5-7.5s-3.3-7.5-7.5-7.5c-3.92,0-7.68,3.45-7.5,7.5s3.3,7.5,7.5,7.5h0Z" style="fill: #3d3938;"/>
  <path d="M537.39,774.57c3.92,0,7.68-3.45,7.5-7.5s-3.3-7.5-7.5-7.5c-3.92,0-7.68,3.45-7.5,7.5s3.3,7.5,7.5,7.5h0Z" style="fill: #3d3938;"/>
  <path d="M537.61,777.25c3.92,0,7.68-3.45,7.5-7.5s-3.3-7.5-7.5-7.5c-3.92,0-7.68,3.45-7.5,7.5s3.3,7.5,7.5,7.5h0Z" style="fill: #3d3938;"/>
  <path d="M538.25,781.32c3.92,0,7.68-3.45,7.5-7.5s-3.3-7.5-7.5-7.5c-3.92,0-7.68,3.45-7.5,7.5s3.3,7.5,7.5,7.5h0Z" style="fill: #3d3938;"/>
  <path d="M538.89,784.21c3.92,0,7.68-3.45,7.5-7.5s-3.3-7.5-7.5-7.5c-3.92,0-7.68,3.45-7.5,7.5s3.3,7.5,7.5,7.5h0Z" style="fill: #3d3938;"/>
  <path d="M540.29,787.96c3.92,0,7.68-3.45,7.5-7.5s-3.3-7.5-7.5-7.5c-3.92,0-7.68,3.45-7.5,7.5s3.3,7.5,7.5,7.5h0Z" style="fill: #3d3938;"/>
  <path d="M562.67,711.97c-6.77,4.82-13.54,9.64-20.31,14.46s-15.14,9.31-17.71,17.79c-1.14,3.75,1.36,8.34,5.24,9.23s8.01-1.22,9.23-5.24c.11-.36,.23-.71,.37-1.06l-.76,1.79c.3-.69,.67-1.31,1.08-1.93,.75-1.15-1.23,1.33-.25,.35,.27-.27,.51-.56,.78-.82,.5-.49,1.03-.96,1.57-1.4,1.24-1.02-.93,.68-.31,.22,.26-.19,.51-.38,.77-.57,3.03-2.21,6.12-4.36,9.17-6.54,6.24-4.44,12.47-8.88,18.71-13.32,1.63-1.16,2.9-2.5,3.45-4.48,.49-1.8,.27-4.19-.76-5.78-2.04-3.16-6.84-5.12-10.26-2.69h0Z" style="fill: #3d3938;"/>
  <path d="M540.87,719.23c-.06,.06-.12,.12-.19,.18l1.52-1.17c-.45,.32-.99,.47-1.43,.8-.59,.43-1.19,.87-1.74,1.35-.09,.08-.18,.16-.26,.25-.39,.4-.72,.87-1.06,1.31-.5,.65-.97,1.28-1.4,1.96-.27,.43-.55,.86-.86,1.27l1.17-1.52c-.27,.34-.56,.66-.9,.93l1.52-1.17c-.19,.15-.39,.27-.61,.38,3.76,2.16,7.52,4.32,11.29,6.48v-.09c-.08,.66-.17,1.33-.26,1.99,.02-.12,.04-.23,.09-.34l-.76,1.79c.05-.11,.11-.2,.18-.3l-1.17,1.52,.06-.07c.73-.68,1.25-1.48,1.55-2.41,.47-.89,.68-1.86,.65-2.89,.04-1.03-.18-2-.65-2.89-.3-.93-.82-1.73-1.55-2.41l-1.52-1.17c-1.17-.68-2.43-1.02-3.79-1.02l-1.99,.27c-1.27,.36-2.37,1-3.31,1.93-1.07,1.21-1.25,1.5-1.79,2.78s-.62,1.6-.74,3.31c0,1.35,.35,2.62,1.02,3.79,.67,1.13,1.56,2.02,2.69,2.69,1.17,.68,2.43,1.02,3.79,1.02,1.35,0,2.62-.35,3.79-1.02,.18-.09,.36-.2,.52-.32,.58-.42,1.17-.87,1.71-1.33,.08-.07,.16-.14,.24-.22,.15-.14,.28-.29,.41-.45,.53-.64,1.05-1.31,1.53-1.99s.93-1.48,1.46-2.17l-1.17,1.52c.27-.34,.56-.66,.9-.94l-1.52,1.17c.26-.2,.53-.35,.83-.49,.16-.07,.33-.15,.48-.24,.33-.2,.66-.49,.94-.71s.68-.48,.95-.76c.73-.68,1.25-1.48,1.55-2.41,.47-.89,.68-1.86,.65-2.89,.04-1.03-.18-2-.65-2.89-.3-.93-.82-1.73-1.55-2.41l-1.52-1.17c-1.17-.68-2.43-1.02-3.79-1.02l-1.99,.27c-1.27,.36-2.37,1-3.31,1.93h0Z" style="fill: #3d3938;"/>
  <path d="M538.57,738.89c3.92,0,7.68-3.45,7.5-7.5s-3.3-7.5-7.5-7.5c-3.92,0-7.68,3.45-7.5,7.5s3.3,7.5,7.5,7.5h0Z" style="fill: #3d3938;"/>
  <path d="M537.18,741.14c3.92,0,7.68-3.45,7.5-7.5s-3.3-7.5-7.5-7.5c-3.92,0-7.68,3.45-7.5,7.5s3.3,7.5,7.5,7.5h0Z" style="fill: #3d3938;"/>
  <path d="M535.89,742.43c3.92,0,7.68-3.45,7.5-7.5s-3.3-7.5-7.5-7.5c-3.92,0-7.68,3.45-7.5,7.5s3.3,7.5,7.5,7.5h0Z" style="fill: #3d3938;"/>
  <path d="M534.07,745.43c3.92,0,7.68-3.45,7.5-7.5s-3.3-7.5-7.5-7.5c-3.92,0-7.68,3.45-7.5,7.5s3.3,7.5,7.5,7.5h0Z" style="fill: #3d3938;"/>
  <path d="M532.57,748.11c3.92,0,7.68-3.45,7.5-7.5s-3.3-7.5-7.5-7.5c-3.92,0-7.68,3.45-7.5,7.5s3.3,7.5,7.5,7.5h0Z" style="fill: #3d3938;"/>
  <path d="M530.64,750.89c3.92,0,7.68-3.45,7.5-7.5s-3.3-7.5-7.5-7.5c-3.92,0-7.68,3.45-7.5,7.5s3.3,7.5,7.5,7.5h0Z" style="fill: #3d3938;"/>
  <path d="M529.25,753.46c3.92,0,7.68-3.45,7.5-7.5s-3.3-7.5-7.5-7.5c-3.92,0-7.68,3.45-7.5,7.5s3.3,7.5,7.5,7.5h0Z" style="fill: #3d3938;"/>
  <path d="M572.91,723.22l-.04-.06-1.17-1.52-.05-.04-1.52-1.17c-.31-.15-.63-.28-.95-.41-.29-.18-.6-.31-.93-.39-.23-.06-1.82-.28-2.06-.28-.36,0-.91,.11-1.11,.14-.09,.01-.78,.06-1.11,.16-.71,.22-1.39,.52-2.04,.86-.59,.32-1.17,.68-1.75,1.01-1.17,.68-2.34,1.35-3.51,2.03-.87,.47-1.58,1.12-2.1,1.93-.66,.72-1.11,1.57-1.34,2.55-.31,1-.36,1.99-.13,2.99,.05,1,.34,1.93,.89,2.79l1.17,1.52c.94,.93,2.04,1.57,3.31,1.93l1.99,.27c1.35,0,2.62-.35,3.79-1.02,.91-.53,1.82-1.05,2.74-1.58,.45-.26,.89-.52,1.34-.78s.87-.54,1.33-.75l-1.79,.76c.08-.03,.15-.05,.23-.07l-1.99,.27s.1,0,.14,0l-1.99-.27h.07c-.6-.24-1.19-.49-1.79-.74l.06,.03-1.52-1.17,.05,.04-1.17-1.52,.04,.06c.47,.87,1.12,1.58,1.93,2.1,.72,.66,1.57,1.11,2.55,1.34,1,.31,1.99,.36,2.99,.13,1-.05,1.93-.34,2.79-.89l1.52-1.17c.93-.94,1.57-2.04,1.93-3.31l.27-1.99c0-1.35-.35-2.62-1.02-3.79h0Z" style="fill: #3d3938;"/>
  <path d="M555.82,740.07c3.92,0,7.68-3.45,7.5-7.5s-3.3-7.5-7.5-7.5c-3.92,0-7.68,3.45-7.5,7.5s3.3,7.5,7.5,7.5h0Z" style="fill: #3d3938;"/>
  <path d="M553.36,741.89c3.92,0,7.68-3.45,7.5-7.5s-3.3-7.5-7.5-7.5c-3.92,0-7.68,3.45-7.5,7.5s3.3,7.5,7.5,7.5h0Z" style="fill: #3d3938;"/>
  <path d="M550.68,744.25c3.92,0,7.68-3.45,7.5-7.5s-3.3-7.5-7.5-7.5c-3.92,0-7.68,3.45-7.5,7.5s3.3,7.5,7.5,7.5h0Z" style="fill: #3d3938;"/>
  <path d="M548.32,746.82c3.92,0,7.68-3.45,7.5-7.5s-3.3-7.5-7.5-7.5c-3.92,0-7.68,3.45-7.5,7.5s3.3,7.5,7.5,7.5h0Z" style="fill: #3d3938;"/>
  <path d="M547.04,747.79c3.92,0,7.68-3.45,7.5-7.5s-3.3-7.5-7.5-7.5c-3.92,0-7.68,3.45-7.5,7.5s3.3,7.5,7.5,7.5h0Z" style="fill: #3d3938;"/>
  <path d="M545.32,749.71c3.92,0,7.68-3.45,7.5-7.5s-3.3-7.5-7.5-7.5c-3.92,0-7.68,3.45-7.5,7.5s3.3,7.5,7.5,7.5h0Z" style="fill: #3d3938;"/>
  <path d="M573.42,705.59c-2.05,.63-4.16,1.1-6.29,1.38l1.99-.27-.12,.02c-1.03-.04-2,.18-2.89,.65-.93,.3-1.73,.82-2.41,1.55-.73,.68-1.25,1.48-1.55,2.41-.47,.89-.68,1.86-.65,2.89l.27,1.99c.36,1.27,1,2.37,1.93,3.31l1.52,1.17c1.17,.68,2.43,1.02,3.79,1.02,2.85-.38,5.64-.82,8.4-1.67,.98-.23,1.83-.68,2.55-1.34,.82-.53,1.46-1.23,1.93-2.1,.55-.86,.84-1.79,.89-2.79,.22-1,.18-1.99-.13-2.99l-.76-1.79c-.67-1.13-1.56-2.02-2.69-2.69l-1.79-.76c-1.33-.36-2.66-.36-3.99,0h0Z" style="fill: #3d3938;"/>
  <path d="M574.17,718.77c.07-.06,.15-.12,.22-.18l-1.52,1.17c.23-.17,.46-.33,.73-.44l-1.79,.76c.11-.04,.23-.07,.34-.09l-1.99,.27c.09,0,.17-.01,.26,0l-1.99-.27c.12,.02,.24,.05,.35,.1l-1.79-.76c.98,.46,1.94,1.02,3.02,1.19s2.21,.36,3.31,.31c.85-.04,1.72-.09,2.53-.36,1.43-.47,2.64-1.09,3.69-2.19s1.66-2.18,2.08-3.63c.39-1.37,.33-2.75,0-4.12-.17-.7-.5-1.34-.82-1.99-.47-.87-1.12-1.58-1.93-2.1-.72-.66-1.57-1.11-2.55-1.34-1-.31-1.99-.36-2.99-.13-1,.05-1.93,.34-2.79,.89l-1.52,1.17c-.93,.94-1.57,2.04-1.93,3.31l-.27,1.99c0,1.35,.35,2.62,1.02,3.79l.03,.06-.76-1.79s.03,.09,.03,.13l-.27-1.99s0,.09,0,.14l.27-1.99s-.02,.09-.04,.13l.76-1.79c-.03,.07-.06,.12-.11,.19l1.17-1.52c-.05,.06-.1,.1-.16,.15l1.52-1.17s-.09,.06-.14,.08l1.79-.76c-.11,.05-.22,.08-.34,.1l1.99-.27c-.52,.07-1.07,.04-1.59-.02l1.99,.27c-.25-.04-.49-.09-.73-.19l1.79,.76c-.8-.36-1.58-.79-2.43-1.05-.06-.02-.12-.03-.18-.04-.35-.05-.69-.1-1.04-.14-.34-.07-.69-.12-1.04-.14-.06,0-.12,0-.18,0-.35,.03-.7,.08-1.04,.14-.36,.04-.72,.09-1.08,.15-.06,.01-.12,.03-.17,.05-.59,.18-1.31,.54-1.88,.79-.11,.05-.23,.1-.33,.17-.12,.07-.24,.16-.35,.24-.6,.44-1.2,.9-1.78,1.38-.73,.68-1.25,1.48-1.55,2.41-.47,.89-.68,1.86-.65,2.89-.04,1.03,.18,2,.65,2.89,.3,.93,.82,1.73,1.55,2.41l1.52,1.17c1.17,.68,2.43,1.02,3.79,1.02l1.99-.27c1.27-.36,2.37-1,3.31-1.93h0Z" style="fill: #3d3938;"/>
  <path d="M571.93,718.33l.05-.07,.76-1.79c.31-1,.36-1.99,.13-2.99-.21-1.56-.85-3.23-2.06-4.31-1.38-1.23-2.75-1.93-4.53-2.17-1.97-.26-3.64,.17-5.33,1.15-.84,.49-1.68,.98-2.51,1.47l10.26,2.69-.12-.16,.76,1.79-.05-.2v3.99l.03-.2-.76,1.79,.1-.17c1.56-2.59,1.22-5.99-.59-8.33-.82-1.06-1.77-1.79-3-2.31-1.43-.6-3.38-.95-4.88-.38-5.2,1.99-10.28,4.31-15.1,7.11-1.63,.94-2.95,2.67-3.45,4.48s-.27,4.19,.76,5.78c2.21,3.42,6.63,4.8,10.26,2.69,3.37-1.96,6.86-3.69,10.45-5.21l-1.79,.76c.95-.4,1.9-.78,2.85-1.14l-8.47-11.02c-1.43,2.38-1.7,5.99,.04,8.31,1.16,1.55,2.49,2.99,4.48,3.45s4,.28,5.78-.76c.97-.57,1.94-1.13,2.91-1.7l-1.79,.76,.15-.03h-3.99l.15,.04-3.31-1.93,.08,.07-1.17-9.09-.05,.07c-1.08,1.47-1.22,4.1-.76,5.78s1.82,3.63,3.45,4.48c1.74,.92,3.85,1.38,5.78,.76l1.79-.76c1.13-.67,2.02-1.56,2.69-2.69h0Z" style="fill: #3d3938;"/>
  <path d="M582.97,727.85c.41-.16,.78-.26,1.21-.34l-1.99,.27c.57-.05,1.12-.04,1.69,.02l-1.99-.27c2.39,.35,4.77,1.09,7.09,1.76s4.76,1.47,7.06,2.43l-1.79-.76c4.32,1.84,8.25,4.38,12.15,6.97,.88,.58,1.75,1.17,2.61,1.79,.63,.47,.48,.36-.45-.35,.23,.19,.46,.38,.68,.58,.43,.39,.81,.82,1.21,1.23,1.02,1.04-.9-1.33-.14-.21,.31,.46,.63,.92,.93,1.39,.61,.99,1.16,2.01,1.64,3.07l-.76-1.79c.46,1.09,.8,2.18,.97,3.35l-.27-1.99c.04,.29,.06,.58,.06,.87,.19,3.91,3.31,7.69,7.5,7.5,3.9-.17,7.7-3.3,7.5-7.5-.28-5.8-3.19-11.38-7.11-15.6-1.74-1.88-3.92-3.36-6.04-4.78-1.94-1.3-3.88-2.59-5.88-3.8-4.28-2.61-8.87-4.66-13.65-6.18-2.23-.71-4.49-1.31-6.75-1.88-3.05-.77-6.43-1.41-9.46-.23-1.88,.73-3.43,1.65-4.48,3.45-.94,1.61-1.34,3.98-.76,5.78,1.15,3.55,5.31,6.75,9.23,5.24h0Z" style="fill: #3d3938;"/>
  <path d="M578.67,719.83l.38-.11-1.99,.27c.26-.04,.52-.05,.78-.02l-1.99-.27c1.26,.18,2.53,.51,3.81,.52s2.62-.34,3.9-.61l-1.99,.27c.96-.11,1.88,0,2.83,.13l-1.99-.27c1.44,.2,2.89,.42,4.26,.92,1.84,.67,3.44,1.22,5.47,1.27,3.16,.08,6.52-2.38,7.23-5.51s-.45-6.84-3.45-8.47c-.6-.33-1.21-.66-1.81-.98l-1.79,13.71,.39-.11-1.99,.27c.27-.04,.54-.04,.8,0l-1.99-.27c.43,.1,.8,.22,1.2,.38l-1.79-.76c2.24,1,4.45,2.05,6.68,3.08,1.58,.73,3.02,1.13,4.78,.89,1.57-.21,3.2-.86,4.31-2.06,2.21-2.41,2.99-6.19,1.17-9.09-.25-.39-.49-.79-.74-1.18l-10.26,10.26c3.23,1.44,6.32,3.17,9.24,5.17,3.25,2.22,8.46,.72,10.26-2.69,2.01-3.81,.77-7.89-2.69-10.26-2.92-2-6.01-3.72-9.24-5.17-1.59-.71-3-1.13-4.78-.89-1.57,.21-3.2,.86-4.31,2.06-2.21,2.41-2.99,6.19-1.17,9.09,.25,.39,.49,.79,.74,1.18l10.26-10.26c-1.8-.83-3.6-1.66-5.4-2.49-3.09-1.43-6-2.62-9.46-1.62-2.88,.83-4.98,3.28-5.37,6.24s.94,6.04,3.58,7.47c.6,.33,1.21,.66,1.81,.98,1.26-4.66,2.52-9.32,3.79-13.98-.27,0-.53-.01-.8-.06l1.99,.27c-1.93-.43-3.66-1.34-5.64-1.67-1.55-.25-3.12-.52-4.69-.63s-3.16,.25-4.71,.6l1.99-.27c-.44,.05-.8,.05-1.24,0l1.99,.27c-2.17-.38-4.18-.73-6.35-.07-3.75,1.13-6.51,5.31-5.24,9.23s5.2,6.45,9.23,5.24h0Z" style="fill: #3d3938;"/>
  <path d="M603.48,725.63c.13,.28,.28,.55,.45,.8,.44,.65,.95,1.26,1.43,1.87,.1,.12,.2,.24,.31,.35,.05,.05,.1,.1,.15,.16,.02,.02,.04,.04,.06,.06,.01,.01,.03,.02,.04,.03l1.52,1.17h.02s.1,.08,.15,.11c.01,0,.02,.01,.03,.02,.17,.08,1.62,.69,1.8,.76,.03,.01,.06,.02,.09,.03,.69,.18,1.41,.27,2.12,.29,.01,0,.02,0,.03,0,.13,0,1.87-.24,2.01-.27,.03,0,.05-.01,.08-.02,.02,0,1.78-.75,1.8-.76,0,0,.02,0,.03-.01,.25-.15,2.19-1.69,.78-.6-.8,.62,.58-.4,.78-.61,0,0,.01-.02,.02-.02,.02-.02,1.17-1.51,1.18-1.53,0-.01,.02-.03,.02-.04,.03-.06,.75-1.75,.77-1.81,0-.01,0-.03,.01-.04,.06-.34,.1-.68,.14-1.02,.07-.33,.11-.67,.13-1.01,0-.01,0-.02,0-.04l-.27-1.99s0-.02,0-.04c0-.01,0-.02-.01-.04v-.02c-.26-.6-.51-1.19-.77-1.79-.02-.03-.04-.06-.06-.09-.1-.14-1.07-1.4-1.18-1.53-.02-.02-.03-.04-.05-.05-.45-.44-1.91-1.48-1.59-1.23-.06-.05-.13-.09-.2-.13-.86-.55-1.79-.84-2.79-.89-1-.22-1.99-.18-2.99,.13-.98,.23-1.83,.68-2.55,1.34-.82,.53-1.46,1.23-1.93,2.1l-.76,1.79c-.36,1.33-.36,2.66,0,3.99l.76,1.79c.67,1.13,1.56,2.02,2.69,2.69,.07,.04,.14,.08,.2,.13l-1.52-1.17s.09,.08,.12,.12l-1.17-1.52s.04,.06,.06,.09l-.76-1.79s.02,.06,.03,.1l-.27-1.99s0,.03,0,.05l.27-1.99s-.01,.05-.02,.08l.76-1.79s-.02,.04-.03,.06l1.17-1.52s-.03,.03-.04,.04l1.52-1.17s-.03,.02-.05,.03l1.79-.76s-.05,.02-.08,.02l1.99-.27s-.07,0-.11,0l1.99,.27c-.06,0-.11-.03-.16-.05l1.79,.76c-.08-.03-.15-.08-.22-.13l1.52,1.17c-.23-.18-.43-.43-.61-.66l1.17,1.52c-.26-.34-.48-.7-.66-1.09-.47-.87-1.12-1.58-1.93-2.1-.72-.66-1.57-1.11-2.55-1.34-1-.31-1.99-.36-2.99-.13-1,.05-1.93,.34-2.79,.89l-1.52,1.17c-.93,.94-1.57,2.04-1.93,3.31l-.27,1.99c0,1.35,.35,2.62,1.02,3.79h0Z" style="fill: #3d3938;"/>
  <path d="M608.95,730.26c.99,.5-.86-.79-1.09-1.09-.8-1.02-.21-.17-.07,.14l-.76-1.79c1.44,3.52,2.68,7.04,4.57,10.37,1.67,2.93,3.75,5.7,5.08,8.81l-.76-1.79c.95,2.42,1.46,5.02,2.1,7.54,.67,2.65,1.33,5.29,2,7.94,.96,3.81,5.43,6.47,9.23,5.24s6.27-5.15,5.24-9.23c-.69-2.72-1.37-5.45-2.06-8.17-.78-3.11-1.5-6.15-2.79-9.09-1.01-2.3-2.43-4.37-3.73-6.51-1.38-2.28-2.69-4.6-3.75-7.06l.76,1.79c-1.56-3.74-2.4-8.04-6.4-10.05-3.5-1.75-8.29-1.05-10.26,2.69-1.8,3.4-1.05,8.39,2.69,10.26h0Z" style="fill: #3d3938;"/>
  <path d="M610.29,731.15l2.81,3.38,10.61-10.61c-.14-.15-.26-.29-.39-.45l1.17,1.52c-.28-.38-.51-.76-.69-1.19l-11.78,9.09c.56,.66,1.1,1.33,1.63,2.02l-1.17-1.52c.75,.97,1.46,1.97,2.14,2.98s1.59,2.04,2.69,2.69l1.79,.76c1,.31,1.99,.36,2.99,.13,.68,0,1.31-.17,1.89-.51,.64-.18,1.19-.5,1.65-.96,.56-.33,1.01-.78,1.35-1.35,.66-.72,1.11-1.57,1.34-2.55,.08-.27,.15-.53,.23-.8h-14.46c.48,1.2,.95,2.42,1.6,3.54s1.47,2.11,2.26,3.12c.68,.73,1.48,1.25,2.41,1.55,.89,.47,1.86,.68,2.89,.65l1.99-.27c.98-.23,1.83-.68,2.55-1.34,1.24-.96,2.33-2.33,2.69-3.9,.42-1.85,.42-4.18-.76-5.78-.11-.15-.2-.29-.28-.46l.76,1.79c-.09-.23-.16-.45-.2-.69l.27,1.99c-.02-.19-.02-.35,0-.54l-12.8,5.3c.52,.5,1,1.04,1.45,1.6l-1.17-1.52c.6,.78,1.12,1.62,1.56,2.5,.8,1.62,2.79,2.98,4.48,3.45,1.8,.49,4.19,.27,5.78-.76s3.01-2.57,3.45-4.48l.27-1.99c0-1.35-.35-2.62-1.02-3.79-1.03-2.08-2.52-4.02-4.18-5.62-.9-.87-2.1-1.6-3.31-1.93l-1.99-.27c-1.03-.04-2,.18-2.89,.65-.64,.18-1.19,.5-1.65,.96-.56,.33-1.01,.78-1.35,1.35-.46,.47-.79,1.02-.96,1.65-.47,.89-.68,1.86-.65,2.89-.14,1.71,.48,4.08,1.5,5.48l11.78-9.09-.13-.16,1.17,1.52c-.66-.87-1.21-1.81-1.65-2.81l.76,1.79c-.05-.13-.11-.25-.16-.38l-.76-1.79c-.47-.87-1.12-1.58-1.93-2.1-1.26-.98-2.9-1.68-4.54-1.61-1.33,.06-2.61,.4-3.79,1.02-1.64,.87-2.94,2.73-3.45,4.48-.08,.27-.15,.53-.23,.8l13.71-1.79c-1.52-2.26-3.19-4.44-4.95-6.52-.68-.73-1.48-1.25-2.41-1.55-.89-.47-1.86-.68-2.89-.65l-1.99,.27c-.98,.23-1.83,.68-2.55,1.34-1.24,.96-2.33,2.33-2.69,3.9l-.27,1.99c0,1.35,.35,2.62,1.02,3.79,.52,1.18,1.39,2.23,2.25,3.16,1.29,1.38,3.44,2.2,5.3,2.2s4.04-.82,5.3-2.2,2.29-3.31,2.2-5.3l-.27-1.99c-.36-1.27-1-2.37-1.93-3.31l-2.81-3.38c-.68-.73-1.48-1.25-2.41-1.55-.89-.47-1.86-.68-2.89-.65-1.84,0-4.04,.82-5.3,2.2s-2.29,3.31-2.2,5.3l.27,1.99c.36,1.27,1,2.37,1.93,3.31h0Z" style="fill: #3d3938;"/>
  <path d="M575.11,730.43c3.92,0,7.68-3.45,7.5-7.5s-3.3-7.5-7.5-7.5c-3.92,0-7.68,3.45-7.5,7.5s3.3,7.5,7.5,7.5h0Z" style="fill: #3d3938;"/>
  <path d="M594.26,724.17c-3.41-1.77-7.06-3.24-10.81-4.12-2.1-.49-4.24-.76-6.38-.51s-4.29,.79-6.43,1.5c-2.97,.98-5.22,4.19-4.19,7.38,.96,2.97,4.19,5.24,7.38,4.19,1.59-.52,3.18-1.03,4.83-1.28l-1.6,.21c1.07-.14,2.12-.15,3.2-.02l-1.6-.21c2.67,.41,5.29,1.3,7.78,2.33l-1.43-.6c1.08,.46,2.14,.95,3.18,1.5,2.78,1.44,6.64,.81,8.21-2.15,1.46-2.75,.82-6.67-2.15-8.21h0Z" style="fill: #3d3938;"/>
  <path d="M593.23,727.87c-.05-.58-.06-1.17-.23-1.72-.1-.32-.46-1.21-.64-1.51-.13-.24-.29-.45-.49-.64-.17-.23-.34-.45-.52-.67-.31-.31-.91-.75-1.28-1-.51-.33-1.15-.55-1.71-.76-.16-.06-.32-.1-.48-.15-.8-.22-1.59-.44-2.39-.66-1.22-.34-2.47-.67-3.75-.67-.09,0-.19,0-.28,.01-.54,.04-1.17,.13-1.7,.23-.16,.03-.31,.07-.46,.13-.58,.22-1.23,.43-1.76,.78-.42,.28-.92,.67-1.3,1-.08,.07-.15,.14-.22,.22-.74,.75-1.26,1.63-1.54,2.65-.25,.8-.29,1.6-.11,2.39,.04,.8,.27,1.54,.71,2.23,.53,.9,1.25,1.62,2.15,2.15,.67,.44,1.45,.71,2.19,1.01,.32,.13,.65,.23,.99,.29,.79,.14,1.64,.29,2.45,.29,.15,0,.31-.01,.46-.03,.68-.07,1.38-.15,2.05-.29,.78-.19,1.46-.54,2.04-1.07,.65-.42,1.17-.98,1.55-1.68,.44-.69,.68-1.43,.71-2.23,.18-.8,.14-1.6-.11-2.39-.47-1.45-1.37-2.85-2.76-3.59l-1.43-.6c-1.06-.29-2.13-.29-3.19,0-.11,.02-.23,.04-.34,.06l1.6-.21c-.42,.05-.84,.05-1.26,0l1.6,.21c-.42-.06-.82-.18-1.21-.34l1.43,.6c-.25-.11-.48-.24-.7-.39l1.21,9.42c.07-.08,.14-.15,.22-.22l-1.21,.94c.11-.09,.23-.15,.36-.22l-1.43,.6c.2-.08,.4-.13,.62-.16l-1.6,.21c.25-.02,.49-.01,.74,.02l-1.6-.21c.8,.13,1.58,.39,2.36,.61s1.54,.36,2.25,.64l-1.43-.6c.09,.04,.16,.08,.24,.14l-1.21-.94s.08,.08,.12,.12l-.94-1.21,.04,.07-.6-1.43,.02,.08-.21-1.6v.08c-.02,.83,.15,1.6,.52,2.31,.24,.74,.66,1.39,1.24,1.93,.54,.59,1.19,1,1.93,1.24,.72,.38,1.49,.55,2.31,.52,1.55-.07,3.16-.58,4.24-1.76s1.89-2.67,1.76-4.24h0Z" style="fill: #3d3938;"/>
  <path d="M578,733.11c3.14,0,6.15-2.76,6-6s-2.64-6-6-6c-3.14,0-6.15,2.76-6,6s2.64,6,6,6h0Z" style="fill: #3d3938;"/>
  <path d="M575.32,733.21c3.14,0,6.15-2.76,6-6s-2.64-6-6-6c-3.14,0-6.15,2.76-6,6s2.64,6,6,6h0Z" style="fill: #3d3938;"/>
  <path d="M570.29,733.96c3.14,0,6.15-2.76,6-6s-2.64-6-6-6c-3.14,0-6.15,2.76-6,6s2.64,6,6,6h0Z" style="fill: #3d3938;"/>
  <path d="M623.33,744.98c.1,.42,.28,.93,.27,1.37,.04-1.5-.04-.14,0,.25,.09,.97,.16,1.93,.22,2.9,.14,1.97,.23,3.95,.14,5.92-.02,.47-.05,.94-.1,1.41-.02,.21-.04,.42-.07,.63-.06,.46-.03,.28,.07-.55-.29,.74-.3,1.69-.49,2.48-.39,1.64-.93,3.23-1.53,4.81-.44,1.15,.51-1.08-.05,.13-.18,.38-.35,.77-.53,1.16-.37,.77-.76,1.53-1.16,2.28-.82,1.51-1.71,2.97-2.64,4.41s-1.84,2.72-2.82,4.04c-.25,.34-.5,.67-.75,1.01-.27,.36-.15,.2,.35-.46-.12,.15-.24,.3-.37,.44-.25,.29-.54,.54-.8,.81-.34,.3-.18,.18,.48-.35-.21,.14-.43,.27-.65,.38l8.81,6.78c1.39-4.42,3.02-8.85,3.86-13.42,.96-5.21,1.07-10.33,.11-15.55-.85-4.58-2.87-8.94-5.27-12.92s-4.98-7.93-8.05-11.37c-3.87-4.33-9.18-7.35-15.07-7.51-3.14-.08-6.14,2.82-6,6s2.64,5.91,6,6c.2,0,.41,.03,.61,.02,.64-.03-.53-.07-.58-.1,.38,.18,.97,.19,1.39,.31,.23,.07,1.43,.54,.63,.18s-.11-.05,.03,.03c.31,.16,.61,.31,.91,.48,.36,.2,.71,.42,1.05,.66,.1,.07,.39,.34,.51,.36-.12-.01-1.06-.9-.24-.17,.69,.61,1.36,1.24,1.99,1.92,.34,.37,.67,.74,.98,1.13,.14,.16,.27,.33,.4,.5,.43,.51-.28-.34-.28-.37,.02,.29,.73,.99,.89,1.21,.29,.41,.58,.82,.86,1.23,1.12,1.64,2.22,3.29,3.26,4.98s1.95,3.32,2.75,5.06c.09,.19,.47,1.07,.14,.3-.31-.73-.02-.03,.03,.1,.15,.41,.31,.83,.46,1.25,.34,.99,.62,2.01,.84,3.03,.1,.44,.17,.88,.26,1.33,.14,.75-.23,.27-.02-.26-.05,.13,.06,.53,.07,.67,.11,1.05,.16,2.1,.16,3.15,0,.9-.03,1.81-.1,2.71,0,.12-.25,1.49-.15,1.58-.01-.01,.18-1.18,.06-.47-.05,.3-.09,.6-.14,.89-.81,4.73-2.51,9.3-3.94,13.87-.72,2.29,.32,4.89,2.15,6.31,1.94,1.5,4.51,1.63,6.66,.47,2.28-1.23,3.76-3.11,5.29-5.12,1.16-1.53,2.27-3.09,3.33-4.68,2.26-3.42,4.14-7,5.68-10.8s2.41-7.79,2.67-11.87c.14-2.14,.04-4.28-.11-6.41-.18-2.57-.34-5.19-.92-7.71-.7-3.06-4.39-5.16-7.38-4.19-3.21,1.04-4.94,4.1-4.19,7.38h0Z" style="fill: #3d3938;"/>
  <path d="M608.54,747.68c3.14,0,6.15-2.76,6-6s-2.64-6-6-6c-3.14,0-6.15,2.76-6,6s2.64,6,6,6h0Z" style="fill: #3d3938;"/>
  <path d="M605.75,744.89c3.14,0,6.15-2.76,6-6s-2.64-6-6-6c-3.14,0-6.15,2.76-6,6s2.64,6,6,6h0Z" style="fill: #3d3938;"/>
  <path d="M601.57,741.25c3.14,0,6.15-2.76,6-6s-2.64-6-6-6c-3.14,0-6.15,2.76-6,6s2.64,6,6,6h0Z" style="fill: #3d3938;"/>
  <path d="M595.68,737.18c3.14,0,6.15-2.76,6-6s-2.64-6-6-6c-3.14,0-6.15,2.76-6,6s2.64,6,6,6h0Z" style="fill: #3d3938;"/>
  <path d="M598.36,738.46c3.14,0,6.15-2.76,6-6s-2.64-6-6-6c-3.14,0-6.15,2.76-6,6s2.64,6,6,6h0Z" style="fill: #3d3938;"/>
  <path d="M606.18,748.55c.24,.24,.47,.49,.7,.74,.64,.73,.38,.11-.04-.11,.41,.21,.88,1.29,1.12,1.7,.31,.53,.6,1.07,.88,1.62,.15,.31,.29,.62,.44,.93,.49,1-.31-.81-.04-.11,1.05,2.69,1.97,5.42,2.64,8.23,.16,.66,.3,1.33,.43,1.99,.07,.37,.14,.74,.2,1.11,.03,.19,.18,1.48,.1,.54s.05,.49,.06,.55c.04,.37,.07,.75,.1,1.12,.05,.67,.09,1.35,.11,2.02,.04,1.5-.03,2.98-.16,4.47-.07,.85-.12,0,.05-.26-.13,.21-.13,.84-.18,1.1-.15,.81-.33,1.61-.54,2.41-.79,3.03,1,6.65,4.19,7.38s6.53-.94,7.38-4.19c1.85-7.05,1.5-14.4-.17-21.45-1.54-6.5-4.02-13.45-8.79-18.3-2.2-2.24-6.31-2.37-8.49,0s-2.35,6.09,0,8.49h0Z" style="fill: #3d3938;"/>
  <path d="M608.44,752.16c.72,.8-.4-.77-.11-.13,.1,.22,.25,.48,.38,.68,.39,.61-.42-1.19-.05-.16,.09,.25,.18,.5,.26,.75,.44,1.32,.83,2.65,1.2,3.99s.7,2.73,.95,4.12c.07,.39,.13,.78,.2,1.18,.13,.83,.16,.11-.02-.18,.29,.45,.19,1.84,.22,2.38,.2,2.86,.16,5.74-.06,8.61-.06,.8-.14,1.59-.23,2.38-.03,.28-.15,.67-.11,.95-.08-.55,.17-1.13,.01-.17-.1,.61-.22,1.21-.4,1.8-.06,.2-.27,.57-.26,.77,.33-.74,.4-.91,.19-.51-.09,.18-.19,.36-.3,.53-1.58,2.71-.71,6.7,2.15,8.21s6.52,.74,8.21-2.15c1.94-3.32,2.3-7.12,2.65-10.87,.31-3.34,.38-6.7,.11-10.04-.29-3.6-.87-7.18-1.87-10.65s-2.1-7.13-4.65-9.99c-2.1-2.35-6.38-2.3-8.49,0-2.3,2.5-2.24,5.98,0,8.49h0Z" style="fill: #3d3938;"/>
  <path d="M611.16,770.69c-.23,.64-.28,1.4-.33,2.06-.02,.24-.02,.48-.03,.73-.02,.45-.06,.9-.11,1.35l.21-1.6c-.17,1.22-.49,2.4-.96,3.53l.6-1.43c-.48,1.13-1.09,2.19-1.84,3.17l.94-1.21c-.1,.13-.2,.25-.3,.37-.59,.54-1,1.19-1.24,1.93-.38,.72-.55,1.49-.52,2.31,0,1.47,.65,3.23,1.76,4.24s2.64,1.83,4.24,1.76c1.5-.07,3.25-.55,4.24-1.76,.83-1.01,1.65-2.04,2.3-3.18s1.19-2.42,1.64-3.68c.75-2.1,.9-4.32,1.05-6.53l-.21,1.6c.02-.17,.05-.31,.11-.47,.25-.8,.29-1.6,.11-2.39-.04-.8-.27-1.54-.71-2.23-.73-1.24-2.16-2.43-3.59-2.76-1.54-.35-3.26-.27-4.62,.6l-1.21,.94c-.74,.75-1.26,1.63-1.54,2.65h0Z" style="fill: #3d3938;"/>
  <path d="M627.81,765.87c-.02,.37-.05,.74-.09,1.11-.02,.17-.13,1.18-.02,.31,.11-.95-.06,.32-.1,.52-.05,.29-.11,.58-.17,.87-.29,1.38-.67,2.74-1.13,4.07-.22,.63-.46,1.26-.7,1.88-.41,1.07,.32-.67,0,0-.13,.27-.24,.54-.37,.81-.6,1.28-1.26,2.53-1.97,3.76-1.38,2.37-2.93,4.64-4.57,6.84-.23,.31-.46,.61-.69,.91-.52,.7,.88-1.12-.04,.05-.42,.54-.85,1.08-1.28,1.61-.91,1.13-1.83,2.25-2.75,3.37-1.04,1.26-1.76,2.55-1.76,4.24,0,1.47,.65,3.23,1.76,4.24,2.21,2.02,6.35,2.59,8.49,0,4.09-4.97,8.23-9.99,11.42-15.6s5.52-12.24,5.97-19c.21-3.14-2.91-6.14-6-6-3.43,.15-5.78,2.64-6,6h0Z" style="fill: #3d3938;"/>
  <path d="M626.27,781.11c-.03,.27-.06,.53-.1,.8l.21-1.6c-.35,2.48-1.02,4.89-1.98,7.2l.6-1.43c-.98,2.3-2.24,4.46-3.77,6.45l.94-1.21c-.44,.56-.9,1.11-1.37,1.64-1.06,1.18-1.76,2.62-1.76,4.24,0,1.47,.65,3.23,1.76,4.24,2.29,2.1,6.25,2.49,8.49,0,2.36-2.63,4.43-5.57,5.87-8.81,.79-1.78,1.53-3.58,2.05-5.46,.55-1.98,.84-4.01,1.07-6.06,.16-1.43-.79-3.27-1.76-4.24-1.04-1.04-2.75-1.82-4.24-1.76s-3.16,.58-4.24,1.76l-.94,1.21c-.54,.94-.82,1.95-.82,3.03h0Z" style="fill: #3d3938;"/>
  <path d="M624.26,743.89c.21,.2,.4,.41,.58,.64l-.94-1.21c.29,.41,.53,.84,.73,1.3l-.6-1.43c.39,.94,.65,1.93,1.01,2.88,.34,.89,.68,1.81,1.16,2.63,.26,.45,.6,.84,.84,1.31l-.6-1.43c.11,.27,.17,.54,.22,.83l-.21-1.6c.14,1.26,.22,2.53,.49,3.77s.79,2.38,1.3,3.53c.57,1.29,2.3,2.4,3.59,2.76,1.44,.4,3.35,.22,4.62-.6s2.41-2.06,2.76-3.59l.21-1.6c0-1.08-.28-2.09-.82-3.03l-.09-.2,.6,1.43c-.37-.89-.62-1.81-.76-2.76l.21,1.6c-.05-.43-.08-.87-.13-1.3-.17-1.55-.33-2.55-1.08-3.94-.38-.71-.88-1.32-1.21-2.07l.6,1.43c-.4-.97-.66-1.99-1.04-2.97-.73-1.84-1.51-3.44-2.96-4.85-1.11-1.08-2.68-1.76-4.24-1.76-1.47,0-3.23,.65-4.24,1.76s-1.83,2.64-1.76,4.24,.6,3.12,1.76,4.24h0Z" style="fill: #3d3938;"/>
  <path d="M627.53,751.07c.65,1.81,.96,3.7,1.22,5.6l-.21-1.6c.34,2.56,.77,5.13,.93,7.71,.1,1.6,.6,3.09,1.76,4.24,1.04,1.04,2.75,1.82,4.24,1.76s3.16-.58,4.24-1.76,1.86-2.66,1.76-4.24c-.15-2.33-.53-4.65-.83-6.96-.35-2.67-.62-5.39-1.54-7.94-.54-1.49-1.35-2.76-2.76-3.59-1.29-.75-3.18-1.07-4.62-.6s-2.85,1.37-3.59,2.76-1.15,3.12-.6,4.62h0Z" style="fill: #3d3938;"/>
  <path d="M629.93,764.05c.13,3.55-.23,7.13-.7,10.65l.21-1.6c-.31,2.25-.77,4.46-1.63,6.57-.55,1.35-.09,3.43,.6,4.62s2.16,2.43,3.59,2.76c1.54,.35,3.26,.27,4.62-.6s2.14-2.06,2.76-3.59c1.25-3.09,1.67-6.42,2.03-9.71,.33-3.03,.62-6.06,.51-9.11s-2.68-6.15-6-6c-3.15,.14-6.12,2.64-6,6h0Z" style="fill: #3d3938;"/>
  <path d="M628.42,780.7c-.05,.27-.12,.52-.23,.78l.6-1.43c-.41,.85-1.08,1.54-1.54,2.35s-.84,1.71-1.06,2.63c-.14,.62-.26,1.21-.5,1.81l.6-1.43c-.69,1.54-1.64,2.99-2.51,4.42s-1.86,2.98-2.83,4.44c-.83,1.25-.99,3.21-.6,4.62s1.46,2.9,2.76,3.59c3.01,1.59,6.35,.64,8.21-2.15,1.26-1.9,2.48-3.82,3.64-5.78,.56-.93,1.13-1.86,1.6-2.85,.38-.81,.77-1.65,1.01-2.52,.15-.56,.21-1.14,.42-1.69l-.6,1.43c.31-.68,.77-1.24,1.19-1.85,.66-.94,1.22-2.05,1.41-3.18,.28-1.63,.26-3.15-.6-4.62-.73-1.24-2.16-2.43-3.59-2.76-1.54-.35-3.26-.27-4.62,.6-1.24,.8-2.49,2.07-2.76,3.59h0Z" style="fill: #3d3938;"/>
</svg>